<svg xmlns="http://www.w3.org/2000/svg" xmlns:xlink="http://www.w3.org/1999/xlink" preserveAspectRatio="xMidYMid meet" width="670" height="725" viewBox="0 0 670 725" style="width:100%;height:100%"><defs><animateTransform repeatCount="indefinite" dur="8.0747414s" begin="0s" xlink:href="#_R_G_L_0_G" fill="freeze" attributeName="transform" from="0" to="0" type="rotate" additive="sum" keyTimes="0;0.2438016;0.4958677;0.7438016;0.9917355;1" values="0;-5;0;3;0;0" keySplines="0.167 0.167 0.833 0.833;0.167 0.167 0.833 0.833;0.167 0.167 0.833 0.833;0.167 0.167 0.833 0.833;0 0 0 0" calcMode="spline"/><animateTransform repeatCount="indefinite" dur="8.0747414s" begin="0s" xlink:href="#_R_G_L_0_G" fill="freeze" attributeName="transform" from="-335 -362.5" to="-335 -362.5" type="translate" additive="sum" keyTimes="0;1" values="-335 -362.5;-335 -362.5" keySplines="0 0 1 1" calcMode="spline"/><animate attributeType="XML" attributeName="opacity" dur="8s" from="0" to="1" xlink:href="#time_group"/></defs><g id="_R_G"><g id="_R_G_L_0_G" transform=" translate(335, 362.5)"><path id="_R_G_L_0_G_D_0_P_0" fill="#d0bda1" fill-opacity="1" fill-rule="nonzero" d=" M264.06 491.88 C264.06,491.88 235.76,494.66 227.43,493.4 C227.43,493.4 209.79,500.09 203.01,505.35 C200.34,507.41 196.31,505.5 196.58,502.14 C196.62,501.58 196.79,501.02 197.11,500.48 C197.11,500.48 209.49,493.9 209.49,493.9 C180.77,491.65 171.07,497.03 171.07,497.03 C171.07,497.03 169.32,487.33 176.4,486.32 C176.4,486.32 190.29,486.58 190.29,486.58 C190.29,486.58 182.71,482.79 180.94,483.04 C180.94,483.04 188.02,476.47 198.12,481.27 C198.12,481.27 213.03,484.81 217.57,477.48 C217.57,477.48 225.66,447.5 226.89,428.89 C227.24,423.57 225.83,418.32 222.98,413.86 C222.98,413.86 233.54,422.42 248.2,416.34 C248.2,416.34 242.12,433.51 242.12,433.51 C242.12,433.51 240.86,435.66 240.86,435.66 C234.54,445.39 234.42,473.3 234.42,473.3 C234.42,473.3 234.34,484.15 244.4,482.63 C244.4,482.63 244.23,482.66 244.23,482.66 C244.23,482.66 261.53,484.3 261.53,484.3 C261.53,484.3 274.92,490.11 264.06,491.88z "/><path id="_R_G_L_0_G_D_1_P_0" stroke="#000000" stroke-linecap="round" stroke-linejoin="round" fill="none" stroke-width="1" stroke-opacity="1" d=" M264.06 491.88 C264.06,491.88 235.76,494.66 227.43,493.4 C227.43,493.4 209.79,500.09 203.01,505.35 C200.34,507.41 196.31,505.5 196.58,502.14 C196.62,501.58 196.79,501.02 197.11,500.48 C197.11,500.48 209.49,493.9 209.49,493.9 C180.77,491.65 171.07,497.03 171.07,497.03 C171.07,497.03 169.32,487.33 176.4,486.32 C176.4,486.32 190.29,486.58 190.29,486.58 C190.29,486.58 182.71,482.79 180.94,483.04 C180.94,483.04 188.02,476.47 198.12,481.27 C198.12,481.27 213.03,484.81 217.57,477.48 C217.57,477.48 225.66,447.5 226.89,428.89 C227.24,423.57 225.83,418.32 222.98,413.86 C222.98,413.86 233.54,422.42 248.2,416.34 C248.2,416.34 242.12,433.51 242.12,433.51 C242.12,433.51 240.86,435.66 240.86,435.66 C234.54,445.39 234.42,473.3 234.42,473.3 C234.42,473.3 234.34,484.15 244.4,482.63 C244.4,482.63 244.23,482.66 244.23,482.66 C244.23,482.66 261.53,484.3 261.53,484.3 C261.53,484.3 274.92,490.11 264.06,491.88z "/><path id="_R_G_L_0_G_D_2_P_0" fill="#d0bda1" fill-opacity="1" fill-rule="nonzero" d=" M266.84 478.49 C266.84,478.49 245.43,482.44 245.43,482.44 C245.43,482.44 244.4,482.63 244.4,482.63 C234.34,484.15 234.42,473.3 234.42,473.3 C242.88,476.34 242.12,433.51 242.12,433.51 C242.12,433.51 248.2,416.34 248.2,416.34 C252.8,414.43 257.8,411.09 263.01,405.59 C260.24,408.68 251.34,419.73 251.55,433.4 C251.55,433.4 250.92,467.63 250.92,467.63 C250.92,467.63 251.3,471.04 260.02,470.53 C260.02,470.53 285.91,472.81 266.84,478.49z "/><path id="_R_G_L_0_G_D_3_P_0" stroke="#000000" stroke-linecap="round" stroke-linejoin="round" fill="none" stroke-width="1" stroke-opacity="1" d=" M266.84 478.49 C266.84,478.49 245.43,482.44 245.43,482.44 C245.43,482.44 244.4,482.63 244.4,482.63 C234.34,484.15 234.42,473.3 234.42,473.3 C242.88,476.34 242.12,433.51 242.12,433.51 C242.12,433.51 248.2,416.34 248.2,416.34 C252.8,414.43 257.8,411.09 263.01,405.59 C260.24,408.68 251.34,419.73 251.55,433.4 C251.55,433.4 250.92,467.63 250.92,467.63 C250.92,467.63 251.3,471.04 260.02,470.53 C260.02,470.53 285.91,472.81 266.84,478.49z "/><path id="_R_G_L_0_G_D_4_P_0" fill="#6a8e73" fill-opacity="1" fill-rule="nonzero" d=" M592.73 589.38 C592.82,606.27 590.38,627.05 580.1,641.69 C580.1,641.69 557.87,708.89 449.74,658.87 C449.74,658.87 431.05,632.09 422.46,652.81 C422.46,652.81 422.46,707.88 422.46,707.88 C422.46,707.88 394.16,721.02 374.96,684.13 C374.96,684.13 320.9,621.48 306.25,560.35 C306.25,560.35 263.81,404.72 263.81,404.72 C263.8,404.73 263.79,404.75 263.77,404.76 C263.69,404.86 263.6,404.95 263.51,405.04 C263.34,405.23 263.17,405.41 263.01,405.59 C225.03,344.82 209.03,272.3 209.03,272.3 C208.02,266.19 200.94,272.3 200.94,272.3 C185.79,274.28 191.34,234.95 191.34,234.95 C209.53,218.27 188.69,205.14 188.69,205.14 C189.49,205.09 190.31,204.99 191.17,204.83 C191.17,204.83 241.39,195.55 288,220.37 C288,220.37 329.41,237.62 349.11,267.34 C349.94,268.6 350.79,269.86 351.7,271.07 C351.7,271.07 435.6,382.56 435.6,382.56 C435.6,382.56 447.85,396.55 454.97,409.19 C460.2,418.47 467.07,426.73 475.34,433.44 C480.99,438.02 487.26,442.97 492.45,446.79 C499.35,451.85 505.56,457.77 511,464.37 C511,464.37 575.9,543.01 575.9,543.01 C586.68,556.07 592.65,572.45 592.73,589.38z "/><path id="_R_G_L_0_G_D_5_P_0" stroke="#000000" stroke-linecap="round" stroke-linejoin="round" fill="none" stroke-width="1" stroke-opacity="1" d=" M592.73 589.38 C592.82,606.27 590.38,627.05 580.1,641.69 C580.1,641.69 557.87,708.89 449.74,658.87 C449.74,658.87 431.05,632.09 422.46,652.81 C422.46,652.81 422.46,707.88 422.46,707.88 C422.46,707.88 394.16,721.02 374.96,684.13 C374.96,684.13 320.9,621.48 306.25,560.35 C306.25,560.35 263.81,404.72 263.81,404.72 C263.8,404.73 263.79,404.75 263.77,404.76 C263.69,404.86 263.6,404.95 263.51,405.04 C263.34,405.23 263.17,405.41 263.01,405.59 C225.03,344.82 209.03,272.3 209.03,272.3 C208.02,266.19 200.94,272.3 200.94,272.3 C185.79,274.28 191.34,234.95 191.34,234.95 C209.53,218.27 188.69,205.14 188.69,205.14 C189.49,205.09 190.31,204.99 191.17,204.83 C191.17,204.83 241.39,195.55 288,220.37 C288,220.37 329.41,237.62 349.11,267.34 C349.94,268.6 350.79,269.86 351.7,271.07 C351.7,271.07 435.6,382.56 435.6,382.56 C435.6,382.56 447.85,396.55 454.97,409.19 C460.2,418.47 467.07,426.73 475.34,433.44 C480.99,438.02 487.26,442.97 492.45,446.79 C499.35,451.85 505.56,457.77 511,464.37 C511,464.37 575.9,543.01 575.9,543.01 C586.68,556.07 592.65,572.45 592.73,589.38z "/><path id="_R_G_L_0_G_D_6_P_0" fill="#becc97" fill-opacity="1" fill-rule="nonzero" d=" M239.05 360.24 C221.81,362.83 188.69,329.21 188.69,329.21 C163.17,303.47 183.51,277.88 183.51,277.88 C174.04,259.17 190.87,239.14 190.87,239.14 C189.94,249.21 188.87,273.88 200.94,272.3 C200.94,272.3 208.02,266.19 209.03,272.3 C209.03,272.3 218.17,313.72 239.03,360.19 C239.04,360.21 239.04,360.22 239.05,360.24z "/><path id="_R_G_L_0_G_D_7_P_0" stroke="#000000" stroke-linecap="round" stroke-linejoin="round" fill="none" stroke-width="1" stroke-opacity="1" d=" M239.05 360.24 C221.81,362.83 188.69,329.21 188.69,329.21 C163.17,303.47 183.51,277.88 183.51,277.88 C174.04,259.17 190.87,239.14 190.87,239.14 C189.94,249.21 188.87,273.88 200.94,272.3 C200.94,272.3 208.02,266.19 209.03,272.3 C209.03,272.3 218.17,313.72 239.03,360.19 C239.04,360.21 239.04,360.22 239.05,360.24z "/><path id="_R_G_L_0_G_D_8_P_0" fill="#35629d" fill-opacity="1" fill-rule="nonzero" d=" M263.01 405.59 C257.8,411.09 252.8,414.43 248.2,416.34 C233.54,422.42 222.98,413.86 222.98,413.86 C222.34,412.84 221.61,411.87 220.82,410.94 C208.94,397.09 179.3,364.66 152.4,352.68 C152.4,352.68 116.52,342.07 112.35,307.59 C112.35,307.59 113.17,278.66 109.23,259.97 C107.41,251.35 107.23,242.47 108.47,233.76 C110.97,216.28 116.81,187.97 130.3,159.4 C132.87,153.96 133.39,147.7 131.35,142.04 C128.73,134.76 121.65,127.22 103.45,127.71 C103.45,127.71 103.4,127.71 103.4,127.71 C103.21,127.73 102.47,127.8 101.37,127.99 C101.32,127.99 101.26,128 101.21,128.01 C97.83,128.57 91.26,130.1 86.04,134.01 C86.02,134.02 86,134.03 85.98,134.05 C85.74,134.23 85.5,134.41 85.27,134.6 C83.48,136.05 81.89,137.81 80.69,139.93 C80.63,140.02 80.57,140.12 80.52,140.22 C80.52,140.22 80.51,140.22 80.5,140.23 C80.5,140.23 80.49,140.23 80.49,140.23 C80.45,140.26 80.36,140.31 80.23,140.37 C80.17,140.39 80.11,140.42 80.04,140.46 C80.04,140.46 80.03,140.46 80.03,140.46 C78.96,140.87 76.57,141.28 76.46,136.62 C76.45,135.99 76.48,135.28 76.56,134.46 C76.56,134.43 76.57,134.4 76.57,134.38 C76.6,133.96 76.66,133.5 76.73,133.02 C76.73,133.02 76.78,132.85 76.88,132.55 C76.88,132.54 76.88,132.54 76.89,132.53 C76.93,132.42 76.97,132.3 77.02,132.16 C77.03,132.15 77.03,132.14 77.03,132.13 C78.18,128.83 82.58,117.22 89.72,111.15 C89.73,111.15 89.74,111.14 89.75,111.13 C90.02,110.9 90.29,110.68 90.56,110.47 C90.56,110.47 90.56,110.36 90.55,110.16 C90.26,102.7 93.22,95.48 98.66,90.37 C106.68,82.82 122,71.51 136.08,78.62 C136.08,78.62 136.09,78.62 136.09,78.62 C136.96,79.06 137.83,79.57 138.69,80.16 C138.74,80.2 138.8,80.23 138.85,80.28 C139.08,80.43 139.3,80.59 139.52,80.75 C140.42,81.41 141.28,82.14 142.13,82.94 C149.27,89.64 154.74,100.74 158.74,111.78 C164.57,127.84 167.64,144.78 168.2,161.86 C168.2,161.86 169.01,186.26 169.01,186.26 C169.01,186.26 172.12,206.27 188.69,205.14 C188.69,205.14 209.53,218.27 191.34,234.95 C191.34,234.95 191.11,236.57 190.87,239.14 C190.87,239.14 174.04,259.17 183.51,277.88 C183.51,277.88 163.17,303.47 188.69,329.21 C188.69,329.21 221.81,362.83 239.05,360.24 C245.79,375.23 253.74,390.77 263.01,405.59z "/><path id="_R_G_L_0_G_D_9_P_0" stroke="#000000" stroke-linecap="round" stroke-linejoin="round" fill="none" stroke-width="1" stroke-opacity="1" d=" M263.01 405.59 C257.8,411.09 252.8,414.43 248.2,416.34 C233.54,422.42 222.98,413.86 222.98,413.86 C222.34,412.84 221.61,411.87 220.82,410.94 C208.94,397.09 179.3,364.66 152.4,352.68 C152.4,352.68 116.52,342.07 112.35,307.59 C112.35,307.59 113.17,278.66 109.23,259.97 C107.41,251.35 107.23,242.47 108.47,233.76 C110.97,216.28 116.81,187.97 130.3,159.4 C132.87,153.96 133.39,147.7 131.35,142.04 C128.73,134.76 121.65,127.22 103.45,127.71 C103.45,127.71 103.4,127.71 103.4,127.71 C103.21,127.73 102.47,127.8 101.37,127.99 C101.32,127.99 101.26,128 101.21,128.01 C97.83,128.57 91.26,130.1 86.04,134.01 C86.02,134.02 86,134.03 85.98,134.05 C85.74,134.23 85.5,134.41 85.27,134.6 C83.48,136.05 81.89,137.81 80.69,139.93 C80.63,140.02 80.57,140.12 80.52,140.22 C80.52,140.22 80.51,140.22 80.5,140.23 C80.5,140.23 80.49,140.23 80.49,140.23 C80.45,140.26 80.36,140.31 80.23,140.37 C80.17,140.39 80.11,140.42 80.04,140.46 C80.04,140.46 80.03,140.46 80.03,140.46 C78.96,140.87 76.57,141.28 76.46,136.62 C76.45,135.99 76.48,135.28 76.56,134.46 C76.56,134.43 76.57,134.4 76.57,134.38 C76.6,133.96 76.66,133.5 76.73,133.02 C76.73,133.02 76.78,132.85 76.88,132.55 C76.88,132.54 76.88,132.54 76.89,132.53 C76.93,132.42 76.97,132.3 77.02,132.16 C77.03,132.15 77.03,132.14 77.03,132.13 C78.18,128.83 82.58,117.22 89.72,111.15 C89.73,111.15 89.74,111.14 89.75,111.13 C90.02,110.9 90.29,110.68 90.56,110.47 C90.56,110.47 90.56,110.36 90.55,110.16 C90.26,102.7 93.22,95.48 98.66,90.37 C106.68,82.82 122,71.51 136.08,78.62 C136.08,78.62 136.09,78.62 136.09,78.62 C136.96,79.06 137.83,79.57 138.69,80.16 C138.74,80.2 138.8,80.23 138.85,80.28 C139.08,80.43 139.3,80.59 139.52,80.75 C140.42,81.41 141.28,82.14 142.13,82.94 C149.27,89.64 154.74,100.74 158.74,111.78 C164.57,127.84 167.64,144.78 168.2,161.86 C168.2,161.86 169.01,186.26 169.01,186.26 C169.01,186.26 172.12,206.27 188.69,205.14 C188.69,205.14 209.53,218.27 191.34,234.95 C191.34,234.95 191.11,236.57 190.87,239.14 C190.87,239.14 174.04,259.17 183.51,277.88 C183.51,277.88 163.17,303.47 188.69,329.21 C188.69,329.21 221.81,362.83 239.05,360.24 C245.79,375.23 253.74,390.77 263.01,405.59z "/><path id="_R_G_L_0_G_D_10_P_0" fill="#ffffff" fill-opacity="1" fill-rule="nonzero" d=" M100.18 112.97 C100.18,112.97 107.29,90.94 122.28,89.68 C122.28,89.68 124.65,82.4 127.93,83.89 C127.93,83.89 135.76,86.74 136.02,99.2 C136.02,99.2 134.25,116.71 120.36,119.24 C108.02,121.48 107.63,121.54 102.13,118.07 C101.44,117.63 100.37,114 100.18,112.97z "/><path id="_R_G_L_0_G_D_11_P_0" stroke="#000000" stroke-linecap="round" stroke-linejoin="round" fill="none" stroke-width="1" stroke-opacity="1" d=" M100.18 112.97 C100.18,112.97 107.29,90.94 122.28,89.68 C122.28,89.68 124.65,82.4 127.93,83.89 C127.93,83.89 135.76,86.74 136.02,99.2 C136.02,99.2 134.25,116.71 120.36,119.24 C108.02,121.48 107.63,121.54 102.13,118.07 C101.44,117.63 100.37,114 100.18,112.97z "/><path id="_R_G_L_0_G_D_12_P_0" fill="#ffff99" fill-opacity="1" fill-rule="nonzero" d=" M76.93 132.25 C74.85,144.35 80.42,140.34 80.42,140.34 C87.89,127.98 103.34,127.84 103.34,127.84 C107.22,120.02 99.66,116.71 99.66,116.71 C98.9,109.51 90.46,110.6 90.46,110.6 C90.46,110.6 79.33,118.23 76.93,132.25z "/><path id="_R_G_L_0_G_D_13_P_0" stroke="#000000" stroke-linecap="round" stroke-linejoin="round" fill="none" stroke-width="1" stroke-opacity="1" d=" M76.93 132.25 C74.85,144.35 80.42,140.34 80.42,140.34 C87.89,127.98 103.34,127.84 103.34,127.84 C107.22,120.02 99.66,116.71 99.66,116.71 C98.9,109.51 90.46,110.6 90.46,110.6 C90.46,110.6 79.33,118.23 76.93,132.25z "/><path id="_R_G_L_0_G_D_14_P_0" stroke="#000000" stroke-linecap="round" stroke-linejoin="round" fill="none" stroke-width="1" stroke-opacity="1" d=" M80.52 140.22 C80.52,140.22 81.25,126.5 104.15,121.16 "/><path id="_R_G_L_0_G_D_15_P_0" fill="#000000" fill-opacity="1" fill-rule="nonzero" d=" M111.55 102.9 C111.55,100.33 112.91,95.18 123.89,94.99 C123.89,94.99 123.23,92.81 123.23,92.81 C122.67,90.97 123.43,88.98 125.07,87.97 C125.07,87.97 125.52,87.69 125.52,87.69 C126.8,86.9 128.44,87.82 128.44,89.32 C128.44,89.32 128.44,93.09 128.44,93.09 C128.44,94.34 127.76,95.48 126.66,96.08 C126.66,96.08 125.41,96.76 125.41,96.76 C125.41,96.76 126.98,106.12 119.32,109.62 C118.03,110.21 116.99,111.26 116.61,112.64 C115.97,114.92 114.31,118.22 110,118.73 C110,118.73 105.7,118.37 105.7,118.37 C103.95,118.23 102.93,116.35 103.73,114.8 C105.39,111.59 108.07,106.92 110.52,105.02 C111.17,104.52 111.55,103.73 111.55,102.9z "/><path id="_R_G_L_0_G_D_16_P_0" fill="#6a8e73" fill-opacity="1" fill-rule="nonzero" d=" M124.23 102.25 C124.23,105.46 121.63,108.06 118.42,108.06 C115.21,108.06 112.61,105.46 112.61,102.25 C112.61,99.05 115.21,96.45 118.42,96.45 C121.63,96.45 124.23,99.05 124.23,102.25z "/><path id="_R_G_L_0_G_D_17_P_0" stroke="#000000" stroke-linecap="round" stroke-linejoin="round" fill="none" stroke-width="1" stroke-opacity="1" d=" M124.23 102.25 C124.23,105.46 121.63,108.06 118.42,108.06 C115.21,108.06 112.61,105.46 112.61,102.25 C112.61,99.05 115.21,96.45 118.42,96.45 C121.63,96.45 124.23,99.05 124.23,102.25z "/><path id="_R_G_L_0_G_D_18_P_0" fill="#088a9b" fill-opacity="1" fill-rule="nonzero" d=" M174.42 56.56 C174.42,59.95 171.67,62.69 168.29,62.69 C166.82,62.69 165.48,62.18 164.42,61.32 C164.42,61.32 162.31,62.45 162.31,62.45 C156.21,66.3 142.43,82.66 142.43,82.66 C142.43,82.66 141.11,83.89 141.11,83.89 C141.11,83.89 139.05,81.73 139.05,81.73 C138.29,80.54 158.47,62.03 162.44,58.41 C162.25,57.83 162.14,57.21 162.14,56.56 C162.14,53.17 164.9,50.43 168.29,50.43 C171.67,50.43 174.42,53.17 174.42,56.56z "/><path id="_R_G_L_0_G_D_19_P_0" stroke="#000000" stroke-linecap="round" stroke-linejoin="round" fill="none" stroke-width="1.417" stroke-opacity="1" d=" M174.42 56.56 C174.42,59.95 171.67,62.69 168.29,62.69 C166.82,62.69 165.48,62.18 164.42,61.32 C164.42,61.32 162.31,62.45 162.31,62.45 C156.21,66.3 142.43,82.66 142.43,82.66 C142.43,82.66 141.11,83.89 141.11,83.89 C141.11,83.89 139.05,81.73 139.05,81.73 C138.29,80.54 158.47,62.03 162.44,58.41 C162.25,57.83 162.14,57.21 162.14,56.56 C162.14,53.17 164.9,50.43 168.29,50.43 C171.67,50.43 174.42,53.17 174.42,56.56z "/><path id="_R_G_L_0_G_D_20_P_0" fill="#088a9b" fill-opacity="1" fill-rule="nonzero" d=" M159.3 53.05 C157.89,53.44 156.45,53.3 155.21,52.75 C155.21,52.75 153.47,54.39 153.47,54.39 C148.61,59.69 139.58,79.11 139.58,79.11 C139.58,79.11 138.63,80.64 138.63,80.64 C138.63,80.64 136.09,79.09 136.09,79.09 C135.05,78.14 149.65,55.01 152.53,50.46 C152.2,49.94 151.93,49.37 151.77,48.74 C150.88,45.48 152.81,42.1 156.09,41.21 C159.35,40.32 162.73,42.25 163.62,45.53 C164.5,48.79 162.57,52.17 159.3,53.05z "/><path id="_R_G_L_0_G_D_21_P_0" stroke="#000000" stroke-linecap="round" stroke-linejoin="round" fill="none" stroke-width="1.417" stroke-opacity="1" d=" M159.3 53.05 C157.89,53.44 156.45,53.3 155.21,52.75 C155.21,52.75 153.47,54.39 153.47,54.39 C148.61,59.69 139.58,79.11 139.58,79.11 C139.58,79.11 138.63,80.64 138.63,80.64 C138.63,80.64 136.09,79.09 136.09,79.09 C135.05,78.14 149.65,55.01 152.53,50.46 C152.2,49.94 151.93,49.37 151.77,48.74 C150.88,45.48 152.81,42.1 156.09,41.21 C159.35,40.32 162.73,42.25 163.62,45.53 C164.5,48.79 162.57,52.17 159.3,53.05z "/><path id="_R_G_L_0_G_D_22_P_0" fill="#088a9b" fill-opacity="1" fill-rule="nonzero" d=" M147.96 45.51 C146.67,46.2 145.25,46.38 143.91,46.11 C143.91,46.11 142.57,48.09 142.57,48.09 C138.99,54.35 134.44,75.25 134.44,75.25 C134.44,75.25 133.86,76.97 133.86,76.97 C133.86,76.97 131.04,76.01 131.04,76.01 C129.81,75.31 138.99,49.5 140.8,44.46 C140.36,44.04 139.98,43.53 139.67,42.96 C138.09,39.97 139.23,36.25 142.22,34.67 C145.22,33.08 148.93,34.23 150.51,37.22 C152.1,40.22 150.96,43.93 147.96,45.51z "/><path id="_R_G_L_0_G_D_23_P_0" stroke="#000000" stroke-linecap="round" stroke-linejoin="round" fill="none" stroke-width="1.417" stroke-opacity="1" d=" M147.96 45.51 C146.67,46.2 145.25,46.38 143.91,46.11 C143.91,46.11 142.57,48.09 142.57,48.09 C138.99,54.35 134.44,75.25 134.44,75.25 C134.44,75.25 133.86,76.97 133.86,76.97 C133.86,76.97 131.04,76.01 131.04,76.01 C129.81,75.31 138.99,49.5 140.8,44.46 C140.36,44.04 139.98,43.53 139.67,42.96 C138.09,39.97 139.23,36.25 142.22,34.67 C145.22,33.08 148.93,34.23 150.51,37.22 C152.1,40.22 150.96,43.93 147.96,45.51z "/><path id="_R_G_L_0_G_D_24_P_0" fill="#088a9b" fill-opacity="1" fill-rule="nonzero" d=" M135.04 41.63 C133.95,42.61 132.61,43.13 131.27,43.2 C131.27,43.2 130.46,45.46 130.46,45.46 C128.51,52.39 129.27,73.79 129.27,73.79 C129.27,73.79 129.12,75.59 129.12,75.59 C129.12,75.59 126.16,75.36 126.16,75.36 C124.79,74.98 127.33,47.71 127.84,42.38 C127.31,42.07 126.81,41.68 126.38,41.2 C124.11,38.68 124.3,34.81 126.81,32.54 C129.31,30.25 133.2,30.46 135.47,32.96 C137.74,35.47 137.55,39.36 135.04,41.63z "/><path id="_R_G_L_0_G_D_25_P_0" stroke="#000000" stroke-linecap="round" stroke-linejoin="round" fill="none" stroke-width="1.417" stroke-opacity="1" d=" M135.04 41.63 C133.95,42.61 132.61,43.13 131.27,43.2 C131.27,43.2 130.46,45.46 130.46,45.46 C128.51,52.39 129.27,73.79 129.27,73.79 C129.27,73.79 129.12,75.59 129.12,75.59 C129.12,75.59 126.16,75.36 126.16,75.36 C124.79,74.98 127.33,47.71 127.84,42.38 C127.31,42.07 126.81,41.68 126.38,41.2 C124.11,38.68 124.3,34.81 126.81,32.54 C129.31,30.25 133.2,30.46 135.47,32.96 C137.74,35.47 137.55,39.36 135.04,41.63z "/><path id="_R_G_L_0_G_D_26_P_0" fill="#088a9b" fill-opacity="1" fill-rule="nonzero" d=" M125.14 75.04 C125.14,75.04 122.19,75.51 122.19,75.51 C120.78,75.46 116.85,48.36 116.08,43.05 C115.5,42.89 114.93,42.62 114.39,42.25 C111.59,40.35 110.87,36.52 112.77,33.73 C114.69,30.93 118.5,30.2 121.3,32.11 C124.09,34.02 124.82,37.83 122.91,40.64 C122.1,41.84 120.92,42.67 119.61,43.04 C119.61,43.04 119.35,45.44 119.35,45.44 C119.1,52.64 124.86,73.25 124.86,73.25 C124.86,73.25 125.14,75.04 125.14,75.04z "/><path id="_R_G_L_0_G_D_27_P_0" stroke="#000000" stroke-linecap="round" stroke-linejoin="round" fill="none" stroke-width="1.417" stroke-opacity="1" d=" M125.14 75.04 C125.14,75.04 122.19,75.51 122.19,75.51 C120.78,75.46 116.85,48.36 116.08,43.05 C115.5,42.89 114.93,42.62 114.39,42.25 C111.59,40.35 110.87,36.52 112.77,33.73 C114.69,30.93 118.5,30.2 121.3,32.11 C124.09,34.02 124.82,37.83 122.91,40.64 C122.1,41.84 120.92,42.67 119.61,43.04 C119.61,43.04 119.35,45.44 119.35,45.44 C119.1,52.64 124.86,73.25 124.86,73.25 C124.86,73.25 125.14,75.04 125.14,75.04z "/><path id="_R_G_L_0_G_D_28_P_0" fill="#088a9b" fill-opacity="1" fill-rule="nonzero" d=" M120.5 77.02 C120.5,77.02 117.77,78.22 117.77,78.22 C116.39,78.52 105.77,53.27 103.7,48.33 C103.09,48.31 102.47,48.2 101.86,47.98 C98.67,46.84 97.01,43.32 98.15,40.14 C99.3,36.94 102.81,35.29 106,36.42 C109.19,37.58 110.84,41.08 109.7,44.28 C109.22,45.65 108.29,46.74 107.11,47.43 C107.11,47.43 107.46,49.82 107.46,49.82 C109.03,56.85 119.78,75.36 119.78,75.36 C119.78,75.36 120.5,77.02 120.5,77.02z "/><path id="_R_G_L_0_G_D_29_P_0" stroke="#000000" stroke-linecap="round" stroke-linejoin="round" fill="none" stroke-width="1.417" stroke-opacity="1" d=" M120.5 77.02 C120.5,77.02 117.77,78.22 117.77,78.22 C116.39,78.52 105.77,53.27 103.7,48.33 C103.09,48.31 102.47,48.2 101.86,47.98 C98.67,46.84 97.01,43.32 98.15,40.14 C99.3,36.94 102.81,35.29 106,36.42 C109.19,37.58 110.84,41.08 109.7,44.28 C109.22,45.65 108.29,46.74 107.11,47.43 C107.11,47.43 107.46,49.82 107.46,49.82 C109.03,56.85 119.78,75.36 119.78,75.36 C119.78,75.36 120.5,77.02 120.5,77.02z "/><path id="_R_G_L_0_G_D_30_P_0" fill="#eaad6e" fill-opacity="1" fill-rule="nonzero" d=" M399.39 543.39 C399.39,543.39 387.52,558.8 395.09,571.94 C395.09,571.94 402.93,584.82 412.78,583.81 C412.78,583.81 421.87,580.27 417.33,562.34 C417.33,562.34 410.76,550.21 399.39,543.39z "/><path id="_R_G_L_0_G_D_31_P_0" stroke="#ffffff" stroke-linecap="round" stroke-linejoin="round" fill="none" stroke-width="1" stroke-opacity="1" d=" M399.39 543.39 C399.39,543.39 387.52,558.8 395.09,571.94 C395.09,571.94 402.93,584.82 412.78,583.81 C412.78,583.81 421.87,580.27 417.33,562.34 C417.33,562.34 410.76,550.21 399.39,543.39z "/><path id="_R_G_L_0_G_D_32_P_0" fill="#2d559b" fill-opacity="1" fill-rule="nonzero" d=" M405.41 557.69 C408.15,558.95 412.83,562.13 409.22,568.21 C408.59,569.27 407.47,569.96 406.24,569.94 C404.37,569.92 401.58,569.13 399.56,565.2 C399.42,564.94 399.33,564.65 399.29,564.36 C399.11,563.18 399,560.16 401.92,558.03 C402.94,557.29 404.26,557.16 405.41,557.69z "/><path id="_R_G_L_0_G_D_33_P_0" fill="#eaad6e" fill-opacity="1" fill-rule="nonzero" d=" M465.92 523.68 C465.92,523.68 454.3,536.27 461.71,547 C461.71,547 469.38,557.52 479.01,556.69 C479.01,556.69 487.91,553.8 483.46,539.15 C483.46,539.15 477.04,529.25 465.92,523.68z "/><path id="_R_G_L_0_G_D_34_P_0" stroke="#ffffff" stroke-linecap="round" stroke-linejoin="round" fill="none" stroke-width="1" stroke-opacity="1" d=" M465.92 523.68 C465.92,523.68 454.3,536.27 461.71,547 C461.71,547 469.38,557.52 479.01,556.69 C479.01,556.69 487.91,553.8 483.46,539.15 C483.46,539.15 477.04,529.25 465.92,523.68z "/><path id="_R_G_L_0_G_D_35_P_0" fill="#2d559b" fill-opacity="1" fill-rule="nonzero" d=" M471.8 535.36 C474.48,536.38 479.06,538.98 475.53,543.95 C474.91,544.82 473.82,545.38 472.61,545.37 C470.79,545.35 468.05,544.7 466.08,541.49 C465.95,541.28 465.86,541.04 465.82,540.81 C465.64,539.84 465.53,537.38 468.39,535.64 C469.38,535.03 470.68,534.93 471.8,535.36z "/><path id="_R_G_L_0_G_D_36_P_0" fill="#eaad6e" fill-opacity="1" fill-rule="nonzero" d=" M371.91 462.89 C371.91,462.89 360.29,475.48 367.7,486.21 C367.7,486.21 375.37,496.74 385,495.91 C385,495.91 393.9,493.02 389.45,478.37 C389.45,478.37 383.03,468.46 371.91,462.89z "/><path id="_R_G_L_0_G_D_37_P_0" stroke="#ffffff" stroke-linecap="round" stroke-linejoin="round" fill="none" stroke-width="1" stroke-opacity="1" d=" M371.91 462.89 C371.91,462.89 360.29,475.48 367.7,486.21 C367.7,486.21 375.37,496.74 385,495.91 C385,495.91 393.9,493.02 389.45,478.37 C389.45,478.37 383.03,468.46 371.91,462.89z "/><path id="_R_G_L_0_G_D_38_P_0" fill="#2d559b" fill-opacity="1" fill-rule="nonzero" d=" M377.79 474.57 C380.47,475.6 385.05,478.2 381.52,483.17 C380.9,484.03 379.81,484.59 378.6,484.58 C376.78,484.56 374.04,483.91 372.07,480.71 C371.94,480.49 371.85,480.26 371.81,480.02 C371.63,479.06 371.52,476.59 374.38,474.85 C375.37,474.24 376.67,474.14 377.79,474.57z "/><path id="_R_G_L_0_G_D_39_P_0" fill="#eaad6e" fill-opacity="1" fill-rule="nonzero" d=" M387.57 424.71 C387.57,424.71 377.88,435.21 384.07,444.16 C384.07,444.16 390.46,452.95 398.5,452.26 C398.5,452.26 405.92,449.85 402.21,437.62 C402.21,437.62 396.85,429.36 387.57,424.71z "/><path id="_R_G_L_0_G_D_40_P_0" stroke="#ffffff" stroke-linecap="round" stroke-linejoin="round" fill="none" stroke-width="1" stroke-opacity="1" d=" M387.57 424.71 C387.57,424.71 377.88,435.21 384.07,444.16 C384.07,444.16 390.46,452.95 398.5,452.26 C398.5,452.26 405.92,449.85 402.21,437.62 C402.21,437.62 396.85,429.36 387.57,424.71z "/><path id="_R_G_L_0_G_D_41_P_0" fill="#2d559b" fill-opacity="1" fill-rule="nonzero" d=" M392.48 434.45 C394.72,435.31 398.54,437.48 395.59,441.62 C395.08,442.35 394.17,442.82 393.16,442.81 C391.64,442.79 389.36,442.25 387.71,439.57 C387.6,439.39 387.53,439.2 387.49,439 C387.34,438.2 387.25,436.14 389.64,434.69 C390.47,434.18 391.55,434.1 392.48,434.45z "/><path id="_R_G_L_0_G_D_42_P_0" fill="#eaad6e" fill-opacity="1" fill-rule="nonzero" d=" M349.33 429.21 C349.33,429.21 339.78,439.56 345.88,448.39 C345.88,448.39 352.18,457.04 360.1,456.36 C360.1,456.36 367.42,453.99 363.76,441.94 C363.76,441.94 358.48,433.79 349.33,429.21z "/><path id="_R_G_L_0_G_D_43_P_0" stroke="#ffffff" stroke-linecap="round" stroke-linejoin="round" fill="none" stroke-width="1" stroke-opacity="1" d=" M349.33 429.21 C349.33,429.21 339.78,439.56 345.88,448.39 C345.88,448.39 352.18,457.04 360.1,456.36 C360.1,456.36 367.42,453.99 363.76,441.94 C363.76,441.94 358.48,433.79 349.33,429.21z "/><path id="_R_G_L_0_G_D_44_P_0" fill="#2d559b" fill-opacity="1" fill-rule="nonzero" d=" M354.17 438.82 C356.38,439.66 360.15,441.8 357.24,445.88 C356.73,446.6 355.83,447.06 354.84,447.05 C353.34,447.03 351.09,446.5 349.47,443.86 C349.36,443.69 349.29,443.49 349.25,443.3 C349.11,442.5 349.01,440.48 351.37,439.04 C352.18,438.55 353.25,438.46 354.17,438.82z "/><path id="_R_G_L_0_G_D_45_P_0" fill="#eaad6e" fill-opacity="1" fill-rule="nonzero" d=" M308.24 401.96 C308.24,401.96 298.14,412.91 304.59,422.23 C304.59,422.23 311.24,431.38 319.62,430.66 C319.62,430.66 327.35,428.15 323.49,415.42 C323.49,415.42 317.9,406.81 308.24,401.96z "/><path id="_R_G_L_0_G_D_46_P_0" stroke="#ffffff" stroke-linecap="round" stroke-linejoin="round" fill="none" stroke-width="1" stroke-opacity="1" d=" M308.24 401.96 C308.24,401.96 298.14,412.91 304.59,422.23 C304.59,422.23 311.24,431.38 319.62,430.66 C319.62,430.66 327.35,428.15 323.49,415.42 C323.49,415.42 317.9,406.81 308.24,401.96z "/><path id="_R_G_L_0_G_D_47_P_0" fill="#2d559b" fill-opacity="1" fill-rule="nonzero" d=" M313.35 412.12 C315.68,413.01 319.66,415.27 316.59,419.59 C316.06,420.34 315.11,420.83 314.06,420.82 C312.47,420.8 310.1,420.24 308.38,417.45 C308.26,417.26 308.19,417.06 308.15,416.85 C308,416.02 307.9,413.87 310.39,412.36 C311.25,411.83 312.38,411.74 313.35,412.12z "/><path id="_R_G_L_0_G_D_48_P_0" fill="#eaad6e" fill-opacity="1" fill-rule="nonzero" d=" M335.49 534.43 C335.49,534.43 320.2,542.15 323.39,554.8 C323.39,554.8 326.88,567.34 336.2,569.94 C336.2,569.94 345.54,570.35 346.5,555.07 C346.5,555.07 343.95,543.54 335.49,534.43z "/><path id="_R_G_L_0_G_D_49_P_0" stroke="#ffffff" stroke-linecap="round" stroke-linejoin="round" fill="none" stroke-width="1" stroke-opacity="1" d=" M335.49 534.43 C335.49,534.43 320.2,542.15 323.39,554.8 C323.39,554.8 326.88,567.34 336.2,569.94 C336.2,569.94 345.54,570.35 346.5,555.07 C346.5,555.07 343.95,543.54 335.49,534.43z "/><path id="_R_G_L_0_G_D_50_P_0" fill="#2d559b" fill-opacity="1" fill-rule="nonzero" d=" M336.91 547.43 C339.06,549.33 342.45,553.37 337.39,556.78 C336.51,557.38 335.29,557.52 334.17,557.09 C332.47,556.43 330.13,554.87 329.4,551.17 C329.35,550.93 329.35,550.68 329.4,550.44 C329.57,549.47 330.33,547.13 333.62,546.5 C334.76,546.28 336.01,546.64 336.91,547.43z "/><path id="_R_G_L_0_G_D_51_P_0" fill="#eaad6e" fill-opacity="1" fill-rule="nonzero" d=" M348.97 386.85 C348.97,386.85 340.39,398.89 347.9,407.28 C347.9,407.28 355.6,415.46 363.77,413.71 C363.77,413.71 371.07,410.27 365.68,398.2 C365.68,398.2 359.1,390.41 348.97,386.85z "/><path id="_R_G_L_0_G_D_52_P_0" stroke="#ffffff" stroke-linecap="round" stroke-linejoin="round" fill="none" stroke-width="1" stroke-opacity="1" d=" M348.97 386.85 C348.97,386.85 340.39,398.89 347.9,407.28 C347.9,407.28 355.6,415.46 363.77,413.71 C363.77,413.71 371.07,410.27 365.68,398.2 C365.68,398.2 359.1,390.41 348.97,386.85z "/><path id="_R_G_L_0_G_D_53_P_0" fill="#2d559b" fill-opacity="1" fill-rule="nonzero" d=" M355.28 396.21 C357.69,396.8 361.89,398.53 359.4,403.17 C358.97,403.98 358.09,404.58 357.06,404.7 C355.49,404.88 353.08,404.62 351.04,402.09 C350.91,401.92 350.81,401.73 350.74,401.53 C350.49,400.72 350.13,398.62 352.39,396.82 C353.17,396.19 354.27,395.97 355.28,396.21z "/><path id="_R_G_L_0_G_D_54_P_0" fill="#eaad6e" fill-opacity="1" fill-rule="nonzero" d=" M464.81 486.86 C464.81,486.86 457.55,500.37 466.38,508.01 C466.38,508.01 475.38,515.42 483.55,512.55 C483.55,512.55 490.62,508.06 483.48,496.35 C483.48,496.35 475.7,489.2 464.81,486.86z "/><path id="_R_G_L_0_G_D_55_P_0" stroke="#ffffff" stroke-linecap="round" stroke-linejoin="round" fill="none" stroke-width="1" stroke-opacity="1" d=" M464.81 486.86 C464.81,486.86 457.55,500.37 466.38,508.01 C466.38,508.01 475.38,515.42 483.55,512.55 C483.55,512.55 490.62,508.06 483.48,496.35 C483.48,496.35 475.7,489.2 464.81,486.86z "/><path id="_R_G_L_0_G_D_56_P_0" fill="#2d559b" fill-opacity="1" fill-rule="nonzero" d=" M472.53 495.67 C475.08,495.96 479.63,497.18 477.68,502.28 C477.34,503.17 476.52,503.9 475.47,504.16 C473.88,504.55 471.37,504.6 468.94,502.27 C468.77,502.11 468.65,501.93 468.56,501.73 C468.19,500.93 467.54,498.82 469.63,496.67 C470.35,495.92 471.46,495.54 472.53,495.67z "/><path id="_R_G_L_0_G_D_57_P_0" fill="#eaad6e" fill-opacity="1" fill-rule="nonzero" d=" M430.93 426.06 C430.93,426.06 422.12,435.61 427.74,443.75 C427.74,443.75 433.55,451.73 440.86,451.1 C440.86,451.1 447.61,448.91 444.24,437.8 C444.24,437.8 439.36,430.29 430.93,426.06z "/><path id="_R_G_L_0_G_D_58_P_0" stroke="#ffffff" stroke-linecap="round" stroke-linejoin="round" fill="none" stroke-width="1" stroke-opacity="1" d=" M430.93 426.06 C430.93,426.06 422.12,435.61 427.74,443.75 C427.74,443.75 433.55,451.73 440.86,451.1 C440.86,451.1 447.61,448.91 444.24,437.8 C444.24,437.8 439.36,430.29 430.93,426.06z "/><path id="_R_G_L_0_G_D_59_P_0" fill="#2d559b" fill-opacity="1" fill-rule="nonzero" d=" M435.39 434.92 C437.43,435.7 440.9,437.67 438.22,441.44 C437.75,442.09 436.92,442.52 436.01,442.51 C434.63,442.5 432.55,442 431.05,439.57 C430.95,439.41 430.89,439.23 430.85,439.05 C430.72,438.32 430.64,436.45 432.8,435.13 C433.56,434.67 434.55,434.59 435.39,434.92z "/><path id="_R_G_L_0_G_D_60_P_0" fill="#eaad6e" fill-opacity="1" fill-rule="nonzero" d=" M421.11 457.52 C421.11,457.52 411.98,467.41 417.81,475.84 C417.81,475.84 423.83,484.11 431.4,483.46 C431.4,483.46 438.39,481.19 434.89,469.68 C434.89,469.68 429.84,461.9 421.11,457.52z "/><path id="_R_G_L_0_G_D_61_P_0" stroke="#ffffff" stroke-linecap="round" stroke-linejoin="round" fill="none" stroke-width="1" stroke-opacity="1" d=" M421.11 457.52 C421.11,457.52 411.98,467.41 417.81,475.84 C417.81,475.84 423.83,484.11 431.4,483.46 C431.4,483.46 438.39,481.19 434.89,469.68 C434.89,469.68 429.84,461.9 421.11,457.52z "/><path id="_R_G_L_0_G_D_62_P_0" fill="#2d559b" fill-opacity="1" fill-rule="nonzero" d=" M425.73 466.7 C427.84,467.5 431.44,469.54 428.66,473.45 C428.17,474.13 427.32,474.57 426.37,474.56 C424.94,474.55 422.79,474.04 421.24,471.52 C421.13,471.35 421.06,471.17 421.03,470.98 C420.89,470.22 420.8,468.29 423.05,466.92 C423.83,466.44 424.85,466.36 425.73,466.7z "/><path id="_R_G_L_0_G_D_63_P_0" fill="#eaad6e" fill-opacity="1" fill-rule="nonzero" d=" M405.92 380.65 C405.92,380.65 397.08,390.24 402.72,398.41 C402.72,398.41 408.56,406.42 415.89,405.79 C415.89,405.79 422.67,403.59 419.28,392.44 C419.28,392.44 414.39,384.9 405.92,380.65z "/><path id="_R_G_L_0_G_D_64_P_0" stroke="#ffffff" stroke-linecap="round" stroke-linejoin="round" fill="none" stroke-width="1" stroke-opacity="1" d=" M405.92 380.65 C405.92,380.65 397.08,390.24 402.72,398.41 C402.72,398.41 408.56,406.42 415.89,405.79 C415.89,405.79 422.67,403.59 419.28,392.44 C419.28,392.44 414.39,384.9 405.92,380.65z "/><path id="_R_G_L_0_G_D_65_P_0" fill="#2d559b" fill-opacity="1" fill-rule="nonzero" d=" M410.4 389.55 C412.44,390.33 415.93,392.31 413.24,396.09 C412.77,396.75 411.94,397.18 411.02,397.17 C409.63,397.15 407.55,396.66 406.05,394.22 C405.95,394.05 405.88,393.88 405.85,393.7 C405.71,392.96 405.63,391.09 407.8,389.76 C408.56,389.3 409.55,389.22 410.4,389.55z "/><path id="_R_G_L_0_G_D_66_P_0" fill="#eaad6e" fill-opacity="1" fill-rule="nonzero" d=" M348.45 469.52 C348.45,469.52 338.29,477.86 342.8,486.8 C342.8,486.8 347.51,495.61 354.93,496 C354.93,496 361.99,494.74 360.15,483.13 C360.15,483.13 356.31,474.92 348.45,469.52z "/><path id="_R_G_L_0_G_D_67_P_0" stroke="#ffffff" stroke-linecap="round" stroke-linejoin="round" fill="none" stroke-width="1" stroke-opacity="1" d=" M348.45 469.52 C348.45,469.52 338.29,477.86 342.8,486.8 C342.8,486.8 347.51,495.61 354.93,496 C354.93,496 361.99,494.74 360.15,483.13 C360.15,483.13 356.31,474.92 348.45,469.52z "/><path id="_R_G_L_0_G_D_68_P_0" fill="#2d559b" fill-opacity="1" fill-rule="nonzero" d=" M351.69 479.02 C353.62,480.08 356.83,482.54 353.62,485.94 C353.06,486.54 352.17,486.85 351.25,486.71 C349.87,486.51 347.86,485.73 346.69,483.08 C346.62,482.9 346.57,482.72 346.57,482.53 C346.53,481.78 346.71,479.89 349.07,478.87 C349.89,478.51 350.88,478.57 351.69,479.02z "/><path id="_R_G_L_0_G_D_69_P_0" fill="#eaad6e" fill-opacity="1" fill-rule="nonzero" d=" M548.8 551.83 C548.8,551.83 544.02,568.28 555.44,574.57 C555.44,574.57 566.99,580.57 575.25,575.54 C575.25,575.54 581.92,568.98 571.4,557.85 C571.4,557.85 561.24,551.85 548.8,551.83z "/><path id="_R_G_L_0_G_D_70_P_0" stroke="#ffffff" stroke-linecap="round" stroke-linejoin="round" fill="none" stroke-width="1" stroke-opacity="1" d=" M548.8 551.83 C548.8,551.83 544.02,568.28 555.44,574.57 C555.44,574.57 566.99,580.57 575.25,575.54 C575.25,575.54 581.92,568.98 571.4,557.85 C571.4,557.85 561.24,551.85 548.8,551.83z "/><path id="_R_G_L_0_G_D_71_P_0" fill="#2d559b" fill-opacity="1" fill-rule="nonzero" d=" M559.28 559.66 C562.13,559.38 567.39,559.66 566.44,565.68 C566.28,566.73 565.55,567.72 564.47,568.25 C562.82,569.05 560.09,569.69 556.89,567.7 C556.68,567.57 556.5,567.4 556.35,567.2 C555.76,566.42 554.56,564.26 556.34,561.43 C556.96,560.44 558.08,559.77 559.28,559.66z "/><path id="_R_G_L_0_G_D_72_P_0" fill="#eaad6e" fill-opacity="1" fill-rule="nonzero" d=" M519.27 586.55 C519.27,586.55 514.49,603 525.91,609.3 C525.91,609.3 537.46,615.3 545.72,610.26 C545.72,610.26 552.39,603.7 541.87,592.57 C541.87,592.57 531.71,586.58 519.27,586.55z "/><path id="_R_G_L_0_G_D_73_P_0" stroke="#ffffff" stroke-linecap="round" stroke-linejoin="round" fill="none" stroke-width="1" stroke-opacity="1" d=" M519.27 586.55 C519.27,586.55 514.49,603 525.91,609.3 C525.91,609.3 537.46,615.3 545.72,610.26 C545.72,610.26 552.39,603.7 541.87,592.57 C541.87,592.57 531.71,586.58 519.27,586.55z "/><path id="_R_G_L_0_G_D_74_P_0" fill="#2d559b" fill-opacity="1" fill-rule="nonzero" d=" M529.75 594.38 C532.6,594.1 537.86,594.38 536.91,600.41 C536.75,601.46 536.02,602.45 534.94,602.97 C533.29,603.77 530.56,604.41 527.36,602.42 C527.15,602.29 526.97,602.12 526.82,601.93 C526.23,601.14 525.04,598.99 526.81,596.15 C527.43,595.16 528.55,594.49 529.75,594.38z "/><path id="_R_G_L_0_G_D_75_P_0" fill="#eaad6e" fill-opacity="1" fill-rule="nonzero" d=" M504.5 514.51 C504.5,514.51 499.72,530.96 511.15,537.25 C511.15,537.25 522.7,543.26 530.95,538.22 C530.95,538.22 537.63,531.66 527.11,520.53 C527.11,520.53 516.94,514.54 504.5,514.51z "/><path id="_R_G_L_0_G_D_76_P_0" stroke="#ffffff" stroke-linecap="round" stroke-linejoin="round" fill="none" stroke-width="1" stroke-opacity="1" d=" M504.5 514.51 C504.5,514.51 499.72,530.96 511.15,537.25 C511.15,537.25 522.7,543.26 530.95,538.22 C530.95,538.22 537.63,531.66 527.11,520.53 C527.11,520.53 516.94,514.54 504.5,514.51z "/><path id="_R_G_L_0_G_D_77_P_0" fill="#2d559b" fill-opacity="1" fill-rule="nonzero" d=" M514.98 522.34 C517.84,522.06 523.1,522.34 522.15,528.37 C521.98,529.42 521.26,530.41 520.17,530.93 C518.53,531.73 515.79,532.37 512.6,530.38 C512.38,530.25 512.2,530.08 512.05,529.88 C511.47,529.1 510.27,526.94 512.05,524.11 C512.67,523.12 513.79,522.45 514.98,522.34z "/><path id="_R_G_L_0_G_D_78_P_0" fill="#eaad6e" fill-opacity="1" fill-rule="nonzero" d=" M446.93 571.2 C446.93,571.2 437.66,585.61 446.81,594.9 C446.81,594.9 456.18,603.94 465.53,601.47 C465.53,601.47 473.79,597.09 466.88,583.42 C466.88,583.42 458.85,574.78 446.93,571.2z "/><path id="_R_G_L_0_G_D_79_P_0" stroke="#ffffff" stroke-linecap="round" stroke-linejoin="round" fill="none" stroke-width="1" stroke-opacity="1" d=" M446.93 571.2 C446.93,571.2 437.66,585.61 446.81,594.9 C446.81,594.9 456.18,603.94 465.53,601.47 C465.53,601.47 473.79,597.09 466.88,583.42 C466.88,583.42 458.85,574.78 446.93,571.2z "/><path id="_R_G_L_0_G_D_80_P_0" fill="#2d559b" fill-opacity="1" fill-rule="nonzero" d=" M454.74 581.69 C457.56,582.25 462.52,584.01 459.89,589.52 C459.44,590.48 458.46,591.22 457.27,591.41 C455.47,591.71 452.66,591.54 450.17,588.73 C450,588.54 449.87,588.32 449.79,588.1 C449.45,587.17 448.91,584.77 451.43,582.56 C452.3,581.79 453.57,581.47 454.74,581.69z "/><path id="_R_G_L_0_G_D_81_P_0" fill="#eaad6e" fill-opacity="1" fill-rule="nonzero" d=" M373.37 564.49 C373.37,564.49 360.43,575.7 366.6,587.19 C366.6,587.19 373.03,598.5 382.7,598.76 C382.7,598.76 391.87,596.88 389.08,581.82 C389.08,581.82 383.8,571.26 373.37,564.49z "/><path id="_R_G_L_0_G_D_82_P_0" stroke="#ffffff" stroke-linecap="round" stroke-linejoin="round" fill="none" stroke-width="1" stroke-opacity="1" d=" M373.37 564.49 C373.37,564.49 360.43,575.7 366.6,587.19 C366.6,587.19 373.03,598.5 382.7,598.76 C382.7,598.76 391.87,596.88 389.08,581.82 C389.08,581.82 383.8,571.26 373.37,564.49z "/><path id="_R_G_L_0_G_D_83_P_0" fill="#2d559b" fill-opacity="1" fill-rule="nonzero" d=" M377.92 576.75 C380.47,578.07 384.73,581.16 380.66,585.71 C379.95,586.5 378.81,586.93 377.61,586.79 C375.8,586.56 373.15,585.62 371.55,582.21 C371.44,581.98 371.38,581.74 371.36,581.5 C371.3,580.52 371.46,578.06 374.5,576.65 C375.55,576.16 376.86,576.2 377.92,576.75z "/><path id="_R_G_L_0_G_D_84_P_0" fill="#eaad6e" fill-opacity="1" fill-rule="nonzero" d=" M403.93 610.48 C403.93,610.48 389.86,614.27 390.99,625.21 C390.99,625.21 392.39,636.11 400.04,639.82 C400.04,639.82 408,641.73 410.75,629.32 C410.75,629.32 410.03,619.4 403.93,610.48z "/><path id="_R_G_L_0_G_D_85_P_0" stroke="#ffffff" stroke-linecap="round" stroke-linejoin="round" fill="none" stroke-width="1" stroke-opacity="1" d=" M403.93 610.48 C403.93,610.48 389.86,614.27 390.99,625.21 C390.99,625.21 392.39,636.11 400.04,639.82 C400.04,639.82 408,641.73 410.75,629.32 C410.75,629.32 410.03,619.4 403.93,610.48z "/><path id="_R_G_L_0_G_D_86_P_0" fill="#2d559b" fill-opacity="1" fill-rule="nonzero" d=" M403.51 621.42 C405.11,623.35 407.49,627.23 402.73,629.2 C401.91,629.54 400.84,629.45 399.93,628.91 C398.56,628.08 396.76,626.4 396.6,623.24 C396.59,623.03 396.62,622.82 396.69,622.63 C396.96,621.87 397.91,620.06 400.8,620.1 C401.81,620.11 402.84,620.62 403.51,621.42z "/><path id="_R_G_L_0_G_D_87_P_0" fill="#eaad6e" fill-opacity="1" fill-rule="nonzero" d=" M419.51 504.72 C419.51,504.72 409.5,511.85 413.1,520.5 C413.1,520.5 416.92,529.03 423.8,529.88 C423.8,529.88 430.47,529.16 429.53,518.2 C429.53,518.2 426.49,510.29 419.51,504.72z "/><path id="_R_G_L_0_G_D_88_P_0" stroke="#ffffff" stroke-linecap="round" stroke-linejoin="round" fill="none" stroke-width="1" stroke-opacity="1" d=" M419.51 504.72 C419.51,504.72 409.5,511.85 413.1,520.5 C413.1,520.5 416.92,529.03 423.8,529.88 C423.8,529.88 430.47,529.16 429.53,518.2 C429.53,518.2 426.49,510.29 419.51,504.72z "/><path id="_R_G_L_0_G_D_89_P_0" fill="#2d559b" fill-opacity="1" fill-rule="nonzero" d=" M421.91 513.81 C423.64,514.93 426.47,517.43 423.25,520.4 C422.69,520.92 421.84,521.15 420.99,520.97 C419.72,520.68 417.89,519.82 416.98,517.27 C416.92,517.1 416.9,516.93 416.9,516.75 C416.92,516.05 417.21,514.3 419.47,513.5 C420.26,513.22 421.19,513.34 421.91,513.81z "/><path id="_R_G_L_0_G_D_90_P_0" fill="#eaad6e" fill-opacity="1" fill-rule="nonzero" d=" M357.29 356.86 C357.29,356.86 349.35,369.19 357.19,377.15 C357.19,377.15 365.21,384.89 373.21,382.77 C373.21,382.77 380.29,379.02 374.37,367.32 C374.37,367.32 367.49,359.92 357.29,356.86z "/><path id="_R_G_L_0_G_D_91_P_0" stroke="#ffffff" stroke-linecap="round" stroke-linejoin="round" fill="none" stroke-width="1" stroke-opacity="1" d=" M357.29 356.86 C357.29,356.86 349.35,369.19 357.19,377.15 C357.19,377.15 365.21,384.89 373.21,382.77 C373.21,382.77 380.29,379.02 374.37,367.32 C374.37,367.32 367.49,359.92 357.29,356.86z "/><path id="_R_G_L_0_G_D_92_P_0" fill="#2d559b" fill-opacity="1" fill-rule="nonzero" d=" M363.98 365.84 C366.39,366.31 370.64,367.83 368.39,372.54 C368,373.36 367.16,374 366.14,374.16 C364.6,374.42 362.2,374.27 360.06,371.86 C359.92,371.7 359.81,371.52 359.74,371.32 C359.45,370.53 358.99,368.47 361.14,366.58 C361.89,365.92 362.97,365.65 363.98,365.84z "/><path id="_R_G_L_0_G_D_93_P_0" fill="#eaad6e" fill-opacity="1" fill-rule="nonzero" d=" M382.75 343.72 C382.75,343.72 374.82,356.05 382.65,364.01 C382.65,364.01 390.67,371.75 398.68,369.63 C398.68,369.63 405.75,365.88 399.84,354.18 C399.84,354.18 392.96,346.78 382.75,343.72z "/><path id="_R_G_L_0_G_D_94_P_0" stroke="#ffffff" stroke-linecap="round" stroke-linejoin="round" fill="none" stroke-width="1" stroke-opacity="1" d=" M382.75 343.72 C382.75,343.72 374.82,356.05 382.65,364.01 C382.65,364.01 390.67,371.75 398.68,369.63 C398.68,369.63 405.75,365.88 399.84,354.18 C399.84,354.18 392.96,346.78 382.75,343.72z "/><path id="_R_G_L_0_G_D_95_P_0" fill="#2d559b" fill-opacity="1" fill-rule="nonzero" d=" M389.44 352.7 C391.86,353.17 396.1,354.69 393.86,359.4 C393.46,360.22 392.63,360.86 391.61,361.02 C390.06,361.28 387.66,361.13 385.52,358.72 C385.38,358.56 385.27,358.38 385.2,358.18 C384.91,357.39 384.45,355.33 386.61,353.44 C387.36,352.78 388.44,352.5 389.44,352.7z "/><path id="_R_G_L_0_G_D_96_P_0" fill="#eaad6e" fill-opacity="1" fill-rule="nonzero" d=" M294.49 341.98 C294.49,341.98 286.56,354.31 294.39,362.27 C294.39,362.27 302.41,370.01 310.42,367.89 C310.42,367.89 317.49,364.14 311.58,352.44 C311.58,352.44 304.7,345.04 294.49,341.98z "/><path id="_R_G_L_0_G_D_97_P_0" stroke="#ffffff" stroke-linecap="round" stroke-linejoin="round" fill="none" stroke-width="1" stroke-opacity="1" d=" M294.49 341.98 C294.49,341.98 286.56,354.31 294.39,362.27 C294.39,362.27 302.41,370.01 310.42,367.89 C310.42,367.89 317.49,364.14 311.58,352.44 C311.58,352.44 304.7,345.04 294.49,341.98z "/><path id="_R_G_L_0_G_D_98_P_0" fill="#2d559b" fill-opacity="1" fill-rule="nonzero" d=" M301.18 350.96 C303.59,351.43 307.84,352.95 305.59,357.66 C305.2,358.48 304.36,359.12 303.35,359.28 C301.8,359.54 299.4,359.39 297.26,356.98 C297.12,356.82 297.01,356.64 296.94,356.44 C296.65,355.65 296.19,353.59 298.35,351.7 C299.09,351.04 300.18,350.77 301.18,350.96z "/><path id="_R_G_L_0_G_D_99_P_0" fill="#eaad6e" fill-opacity="1" fill-rule="nonzero" d=" M285.43 374.18 C285.43,374.18 279.86,382.63 285.31,388.04 C285.31,388.04 290.88,393.31 296.48,391.84 C296.48,391.84 301.43,389.26 297.33,381.28 C297.33,381.28 292.55,376.24 285.43,374.18z "/><path id="_R_G_L_0_G_D_100_P_0" stroke="#ffffff" stroke-linecap="round" stroke-linejoin="round" fill="none" stroke-width="1" stroke-opacity="1" d=" M285.43 374.18 C285.43,374.18 279.86,382.63 285.31,388.04 C285.31,388.04 290.88,393.31 296.48,391.84 C296.48,391.84 301.43,389.26 297.33,381.28 C297.33,381.28 292.55,376.24 285.43,374.18z "/><path id="_R_G_L_0_G_D_101_P_0" fill="#2d559b" fill-opacity="1" fill-rule="nonzero" d=" M290.08 380.3 C291.76,380.61 294.73,381.64 293.14,384.86 C292.87,385.42 292.28,385.86 291.57,385.98 C290.49,386.16 288.81,386.06 287.33,384.42 C287.23,384.31 287.15,384.19 287.1,384.05 C286.9,383.52 286.59,382.11 288.1,380.81 C288.62,380.36 289.38,380.17 290.08,380.3z "/><path id="_R_G_L_0_G_D_102_P_0" fill="#eaad6e" fill-opacity="1" fill-rule="nonzero" d=" M322.85 326.17 C322.85,326.17 315.33,336.66 322.45,343.23 C322.45,343.23 329.75,349.62 337.18,347.72 C337.18,347.72 343.78,344.46 338.49,334.71 C338.49,334.71 332.24,328.59 322.85,326.17z "/><path id="_R_G_L_0_G_D_103_P_0" stroke="#ffffff" stroke-linecap="round" stroke-linejoin="round" fill="none" stroke-width="1" stroke-opacity="1" d=" M322.85 326.17 C322.85,326.17 315.33,336.66 322.45,343.23 C322.45,343.23 329.75,349.62 337.18,347.72 C337.18,347.72 343.78,344.46 338.49,334.71 C338.49,334.71 332.24,328.59 322.85,326.17z "/><path id="_R_G_L_0_G_D_104_P_0" fill="#2d559b" fill-opacity="1" fill-rule="nonzero" d=" M328.9 333.62 C331.13,333.98 335.03,335.19 332.88,339.19 C332.51,339.88 331.72,340.43 330.78,340.59 C329.35,340.82 327.13,340.74 325.19,338.74 C325.06,338.61 324.96,338.46 324.9,338.29 C324.64,337.64 324.25,335.91 326.27,334.29 C326.97,333.72 327.97,333.47 328.9,333.62z "/><path id="_R_G_L_0_G_D_105_P_0" fill="#eaad6e" fill-opacity="1" fill-rule="nonzero" d=" M336.73 304.28 C336.73,304.28 329.2,314.76 336.33,321.33 C336.33,321.33 343.62,327.72 351.06,325.82 C351.06,325.82 357.66,322.56 352.37,312.81 C352.37,312.81 346.12,306.69 336.73,304.28z "/><path id="_R_G_L_0_G_D_106_P_0" stroke="#ffffff" stroke-linecap="round" stroke-linejoin="round" fill="none" stroke-width="1" stroke-opacity="1" d=" M336.73 304.28 C336.73,304.28 329.2,314.76 336.33,321.33 C336.33,321.33 343.62,327.72 351.06,325.82 C351.06,325.82 357.66,322.56 352.37,312.81 C352.37,312.81 346.12,306.69 336.73,304.28z "/><path id="_R_G_L_0_G_D_107_P_0" fill="#2d559b" fill-opacity="1" fill-rule="nonzero" d=" M342.78 311.73 C345,312.08 348.91,313.29 346.76,317.29 C346.38,317.99 345.6,318.53 344.65,318.69 C343.22,318.93 341,318.84 339.06,316.85 C338.93,316.71 338.83,316.56 338.77,316.4 C338.51,315.74 338.12,314.01 340.14,312.39 C340.85,311.82 341.85,311.58 342.78,311.73z "/><path id="_R_G_L_0_G_D_108_P_0" fill="#eaad6e" fill-opacity="1" fill-rule="nonzero" d=" M352.64 297.04 C352.64,297.04 346.2,304.75 351.98,309.36 C351.98,309.36 357.91,313.83 364.11,312.31 C364.11,312.31 369.65,309.83 365.45,302.9 C365.45,302.9 360.38,298.6 352.64,297.04z "/><path id="_R_G_L_0_G_D_109_P_0" stroke="#ffffff" stroke-linecap="round" stroke-linejoin="round" fill="none" stroke-width="1" stroke-opacity="1" d=" M352.64 297.04 C352.64,297.04 346.2,304.75 351.98,309.36 C351.98,309.36 357.91,313.83 364.11,312.31 C364.11,312.31 369.65,309.83 365.45,302.9 C365.45,302.9 360.38,298.6 352.64,297.04z "/><path id="_R_G_L_0_G_D_110_P_0" fill="#2d559b" fill-opacity="1" fill-rule="nonzero" d=" M357.52 302.3 C359.35,302.51 362.57,303.31 360.71,306.24 C360.38,306.75 359.72,307.16 358.93,307.29 C357.74,307.49 355.91,307.47 354.33,306.07 C354.23,305.97 354.15,305.86 354.1,305.75 C353.9,305.28 353.61,304.04 355.32,302.83 C355.91,302.41 356.75,302.21 357.52,302.3z "/><path id="_R_G_L_0_G_D_111_P_0" fill="#eaad6e" fill-opacity="1" fill-rule="nonzero" d=" M307.58 297.29 C307.58,297.29 297.3,303.24 302.47,310.13 C302.47,310.13 307.86,316.92 315.68,317.46 C315.68,317.46 323.05,316.75 320.56,307.94 C320.56,307.94 316.12,301.63 307.58,297.29z "/><path id="_R_G_L_0_G_D_112_P_0" stroke="#ffffff" stroke-linecap="round" stroke-linejoin="round" fill="none" stroke-width="1" stroke-opacity="1" d=" M307.58 297.29 C307.58,297.29 297.3,303.24 302.47,310.13 C302.47,310.13 307.86,316.92 315.68,317.46 C315.68,317.46 323.05,316.75 320.56,307.94 C320.56,307.94 316.12,301.63 307.58,297.29z "/><path id="_R_G_L_0_G_D_113_P_0" fill="#2d559b" fill-opacity="1" fill-rule="nonzero" d=" M311.46 304.56 C313.54,305.42 317.03,307.38 313.82,309.84 C313.26,310.27 312.34,310.48 311.37,310.34 C309.9,310.14 307.75,309.48 306.4,307.45 C306.31,307.32 306.25,307.17 306.24,307.03 C306.17,306.47 306.26,305.05 308.69,304.36 C309.53,304.12 310.59,304.2 311.46,304.56z "/><path id="_R_G_L_0_G_D_114_P_0" fill="#eaad6e" fill-opacity="1" fill-rule="nonzero" d=" M297.56 316.09 C297.56,316.09 287.28,322.04 292.45,328.93 C292.45,328.93 297.83,335.73 305.65,336.27 C305.65,336.27 313.03,335.55 310.53,326.75 C310.53,326.75 306.1,320.43 297.56,316.09z "/><path id="_R_G_L_0_G_D_115_P_0" stroke="#ffffff" stroke-linecap="round" stroke-linejoin="round" fill="none" stroke-width="1" stroke-opacity="1" d=" M297.56 316.09 C297.56,316.09 287.28,322.04 292.45,328.93 C292.45,328.93 297.83,335.73 305.65,336.27 C305.65,336.27 313.03,335.55 310.53,326.75 C310.53,326.75 306.1,320.43 297.56,316.09z "/><path id="_R_G_L_0_G_D_116_P_0" fill="#2d559b" fill-opacity="1" fill-rule="nonzero" d=" M301.43 323.36 C303.51,324.23 307.01,326.19 303.79,328.65 C303.23,329.07 302.31,329.28 301.34,329.15 C299.87,328.94 297.72,328.29 296.37,326.26 C296.28,326.12 296.22,325.98 296.21,325.84 C296.14,325.27 296.23,323.86 298.66,323.16 C299.51,322.92 300.56,323 301.43,323.36z "/><path id="_R_G_L_0_G_D_117_P_0" fill="#eaad6e" fill-opacity="1" fill-rule="nonzero" d=" M315.58 277.86 C315.58,277.86 306.78,285.84 313.28,291.48 C313.28,291.48 319.98,296.99 327.74,295.88 C327.74,295.88 334.8,293.63 330.51,285.54 C330.51,285.54 324.84,280.3 315.58,277.86z "/><path id="_R_G_L_0_G_D_118_P_0" stroke="#ffffff" stroke-linecap="round" stroke-linejoin="round" fill="none" stroke-width="1" stroke-opacity="1" d=" M315.58 277.86 C315.58,277.86 306.78,285.84 313.28,291.48 C313.28,291.48 319.98,296.99 327.74,295.88 C327.74,295.88 334.8,293.63 330.51,285.54 C330.51,285.54 324.84,280.3 315.58,277.86z "/><path id="_R_G_L_0_G_D_119_P_0" fill="#2d559b" fill-opacity="1" fill-rule="nonzero" d=" M320.9 284.15 C323.11,284.56 326.94,285.74 324.32,288.82 C323.86,289.35 323,289.75 322.02,289.82 C320.55,289.93 318.3,289.75 316.56,288.04 C316.44,287.93 316.36,287.8 316.31,287.67 C316.12,287.13 315.92,285.73 318.15,284.54 C318.92,284.12 319.97,283.98 320.9,284.15z "/><path id="_R_G_L_0_G_D_120_P_0" fill="#eaad6e" fill-opacity="1" fill-rule="nonzero" d=" M283.47 279.76 C283.47,279.76 273.19,285.71 278.36,292.6 C278.36,292.6 283.74,299.39 291.56,299.93 C291.56,299.93 298.94,299.22 296.44,290.41 C296.44,290.41 292.01,284.1 283.47,279.76z "/><path id="_R_G_L_0_G_D_121_P_0" stroke="#ffffff" stroke-linecap="round" stroke-linejoin="round" fill="none" stroke-width="1" stroke-opacity="1" d=" M283.47 279.76 C283.47,279.76 273.19,285.71 278.36,292.6 C278.36,292.6 283.74,299.39 291.56,299.93 C291.56,299.93 298.94,299.22 296.44,290.41 C296.44,290.41 292.01,284.1 283.47,279.76z "/><path id="_R_G_L_0_G_D_122_P_0" fill="#2d559b" fill-opacity="1" fill-rule="nonzero" d=" M287.34 287.03 C289.42,287.9 292.92,289.85 289.7,292.31 C289.14,292.74 288.22,292.95 287.25,292.81 C285.78,292.61 283.63,291.96 282.28,289.92 C282.19,289.79 282.13,289.65 282.12,289.5 C282.05,288.94 282.14,287.52 284.57,286.83 C285.42,286.59 286.47,286.67 287.34,287.03z "/><path id="_R_G_L_0_G_D_123_P_0" fill="#eaad6e" fill-opacity="1" fill-rule="nonzero" d=" M261.76 265 C261.76,265 254.28,269.32 258.04,274.33 C258.04,274.33 261.96,279.27 267.64,279.66 C267.64,279.66 273,279.14 271.19,272.74 C271.19,272.74 267.96,268.15 261.76,265z "/><path id="_R_G_L_0_G_D_124_P_0" stroke="#ffffff" stroke-linecap="round" stroke-linejoin="round" fill="none" stroke-width="1" stroke-opacity="1" d=" M261.76 265 C261.76,265 254.28,269.32 258.04,274.33 C258.04,274.33 261.96,279.27 267.64,279.66 C267.64,279.66 273,279.14 271.19,272.74 C271.19,272.74 267.96,268.15 261.76,265z "/><path id="_R_G_L_0_G_D_125_P_0" fill="#2d559b" fill-opacity="1" fill-rule="nonzero" d=" M264.57 270.28 C266.09,270.91 268.63,272.33 266.29,274.12 C265.88,274.43 265.21,274.58 264.51,274.49 C263.44,274.34 261.88,273.86 260.9,272.39 C260.83,272.29 260.79,272.18 260.78,272.08 C260.73,271.67 260.8,270.64 262.56,270.14 C263.18,269.96 263.94,270.02 264.57,270.28z "/><path id="_R_G_L_0_G_D_126_P_0" fill="#eaad6e" fill-opacity="1" fill-rule="nonzero" d=" M258.5 284.68 C258.5,284.68 251.57,288.98 255,293.86 C255,293.86 258.58,298.67 263.83,299.01 C263.83,299.01 268.79,298.46 267.16,292.2 C267.16,292.2 264.21,287.72 258.5,284.68z "/><path id="_R_G_L_0_G_D_127_P_0" stroke="#ffffff" stroke-linecap="round" stroke-linejoin="round" fill="none" stroke-width="1" stroke-opacity="1" d=" M258.5 284.68 C258.5,284.68 251.57,288.98 255,293.86 C255,293.86 258.58,298.67 263.83,299.01 C263.83,299.01 268.79,298.46 267.16,292.2 C267.16,292.2 264.21,287.72 258.5,284.68z "/><path id="_R_G_L_0_G_D_128_P_0" fill="#2d559b" fill-opacity="1" fill-rule="nonzero" d=" M261.07 289.84 C262.46,290.44 264.8,291.82 262.62,293.59 C262.24,293.9 261.62,294.05 260.97,293.96 C259.99,293.82 258.55,293.37 257.65,291.93 C257.59,291.83 257.56,291.73 257.54,291.63 C257.5,291.23 257.57,290.22 259.21,289.71 C259.78,289.53 260.48,289.58 261.07,289.84z "/><path id="_R_G_L_0_G_D_129_P_0" fill="#eaad6e" fill-opacity="1" fill-rule="nonzero" d=" M274.54 303.41 C274.54,303.41 265.33,305.77 267.67,312.27 C267.67,312.27 270.21,318.76 276.04,320.91 C276.04,320.91 281.82,321.99 281.96,314.57 C281.96,314.57 280.04,308.67 274.54,303.41z "/><path id="_R_G_L_0_G_D_130_P_0" stroke="#ffffff" stroke-linecap="round" stroke-linejoin="round" fill="none" stroke-width="1" stroke-opacity="1" d=" M274.54 303.41 C274.54,303.41 265.33,305.77 267.67,312.27 C267.67,312.27 270.21,318.76 276.04,320.91 C276.04,320.91 281.82,321.99 281.96,314.57 C281.96,314.57 280.04,308.67 274.54,303.41z "/><path id="_R_G_L_0_G_D_131_P_0" fill="#2d559b" fill-opacity="1" fill-rule="nonzero" d=" M275.81 309.93 C277.19,311.06 279.4,313.36 276.39,314.56 C275.86,314.77 275.11,314.73 274.4,314.41 C273.33,313.93 271.84,312.94 271.28,311.06 C271.24,310.93 271.24,310.81 271.26,310.7 C271.33,310.24 271.73,309.16 273.74,309.16 C274.44,309.16 275.23,309.45 275.81,309.93z "/><path id="_R_G_L_0_G_D_132_P_0" fill="#eaad6e" fill-opacity="1" fill-rule="nonzero" d=" M276.81 331.9 C276.81,331.9 267.6,334.26 269.95,340.77 C269.95,340.77 272.48,347.25 278.31,349.4 C278.31,349.4 284.1,350.48 284.24,343.07 C284.24,343.07 282.32,337.17 276.81,331.9z "/><path id="_R_G_L_0_G_D_133_P_0" stroke="#ffffff" stroke-linecap="round" stroke-linejoin="round" fill="none" stroke-width="1" stroke-opacity="1" d=" M276.81 331.9 C276.81,331.9 267.6,334.26 269.95,340.77 C269.95,340.77 272.48,347.25 278.31,349.4 C278.31,349.4 284.1,350.48 284.24,343.07 C284.24,343.07 282.32,337.17 276.81,331.9z "/><path id="_R_G_L_0_G_D_134_P_0" fill="#2d559b" fill-opacity="1" fill-rule="nonzero" d=" M278.08 338.42 C279.47,339.55 281.68,341.85 278.66,343.05 C278.14,343.26 277.39,343.22 276.68,342.9 C275.61,342.42 274.12,341.43 273.56,339.55 C273.52,339.43 273.51,339.3 273.53,339.19 C273.61,338.73 274.01,337.65 276.02,337.65 C276.72,337.65 277.51,337.94 278.08,338.42z "/></g></g><g id="time_group"/></svg>